<svg width="30" height="30" viewBox="0 0 30 30" fill="none" xmlns="http://www.w3.org/2000/svg">
<g clip-path="url(#clip0_603_4068)">
<rect width="30" height="30" rx="15" fill="white"/>
<path fill-rule="evenodd" clip-rule="evenodd" d="M30 15.0001C30.0051 18.8634 28.5145 22.5787 25.8407 25.3672C24.4468 26.8283 22.7715 27.9921 20.9158 28.7883C19.06 29.5845 17.0622 29.9967 15.0429 30.0001H14.9571C12.9378 29.9967 10.94 29.5845 9.08424 28.7883C7.22848 27.9921 5.55316 26.8283 4.15929 25.3672C2.46418 23.5947 1.22956 21.4335 0.563585 19.0731C-0.10239 16.7126 -0.179408 14.2249 0.339279 11.8277C0.857965 9.43061 1.95653 7.19724 3.53875 5.32324C5.12097 3.44925 7.13857 1.99181 9.41481 1.07859C11.6911 0.165376 14.1565 -0.17576 16.5952 0.0850676C19.0339 0.345895 21.3714 1.20073 23.4031 2.57469C25.4347 3.94865 27.0984 5.79982 28.2485 7.96604C29.3986 10.1323 30 12.5475 30 15.0001ZM24.0921 22.5001C22.9874 21.1583 21.599 20.0781 20.0269 19.3371C18.4548 18.596 16.738 18.2126 15 18.2143C13.262 18.2126 11.5452 18.596 9.97307 19.3371C8.40095 20.0781 7.0126 21.1583 5.90786 22.5001C7.0126 23.8418 8.40095 24.922 9.97307 25.6631C11.5452 26.4041 13.262 26.7875 15 26.7858C16.738 26.7875 18.4548 26.4041 20.0269 25.6631C21.599 24.922 22.9874 23.8418 24.0921 22.5001ZM15 16.0715C16.4208 16.0715 17.7834 15.5071 18.7881 14.5024C19.7927 13.4978 20.3571 12.1352 20.3571 10.7143C20.3571 9.29355 19.7927 7.93094 18.7881 6.92628C17.7834 5.92162 16.4208 5.35721 15 5.35721C13.5792 5.35721 12.2166 5.92162 11.2119 6.92628C10.2073 7.93094 9.64286 9.29355 9.64286 10.7143C9.64286 12.1352 10.2073 13.4978 11.2119 14.5024C12.2166 15.5071 13.5792 16.0715 15 16.0715Z" fill="#BFC6D1"/>
</g>
<defs>
<clipPath id="clip0_603_4068">
<rect width="30" height="30" rx="15" fill="white"/>
</clipPath>
</defs>
</svg>
